<mxfile host="app.diagrams.net" modified="2022-05-09T01:27:01.703Z" agent="5.0 (Windows NT 10.0; WOW64) AppleWebKit/537.36 (KHTML, like Gecko) Chrome/100.0.4896.136 Safari/537.36" etag="IJzzCVOjslb7UhzbF3ea" version="17.5.0" type="github">
  <diagram id="iiie2N8Br0gPUjXj6UXS" name="Page-1">
    <mxGraphModel dx="907" dy="495" grid="0" gridSize="10" guides="1" tooltips="1" connect="1" arrows="1" fold="1" page="1" pageScale="1" pageWidth="4681" pageHeight="3300" math="0" shadow="0">
      <root>
        <mxCell id="0" />
        <mxCell id="1" parent="0" />
        <mxCell id="TK0vcd81yZu8aPoAn3Pi-2" value="Application" style="text;html=1;align=center;verticalAlign=middle;resizable=0;points=[];autosize=1;strokeColor=none;fillColor=none;" vertex="1" parent="1">
          <mxGeometry x="265" y="258" width="69" height="18" as="geometry" />
        </mxCell>
        <mxCell id="TK0vcd81yZu8aPoAn3Pi-4" value="" style="shape=image;verticalLabelPosition=bottom;labelBackgroundColor=default;verticalAlign=top;aspect=fixed;imageAspect=0;image=https://static.thenounproject.com/png/1206133-200.png;" vertex="1" parent="1">
          <mxGeometry x="272" y="203" width="55" height="55" as="geometry" />
        </mxCell>
      </root>
    </mxGraphModel>
  </diagram>
</mxfile>
